<?xml version="1.0" encoding="UTF-8"?>
<svg id="Layer_2" data-name="Layer 2" xmlns="http://www.w3.org/2000/svg" viewBox="0 0 166.09 230.08">
  <defs>
    <style>
      .cls-1 {
        fill: #231f20;
      }

      .cls-2 {
        fill: #fff;
      }
    </style>
  </defs>
  <g id="Layer_1-2" data-name="Layer 1">
    <g>
      <path class="cls-1" d="M.31,191.5c-3.44,26.51,22.21,35.26,45.96,33.47,7.02-.53,14.09.21,20.93,1.89,10.76,2.64,21.83,5.23,32.07.9.91-.39,1.87-.68,2.86-.7,6.49-.11,11.4-5.61,15.97-9.92,1.91-1.8,4.3-3.04,6.89-3.44,8.74-1.37,17.92-5.66,20.54-11.8.68-1.58,1.51-3.11,2.75-4.3,5.69-5.46,9.02-15.18,7.95-23.86-.4-3.27.5-6.51,2.48-9.14,4.96-6.6,6.77-16.31,4.7-24.29-.54-2.08-.44-4.29.43-6.26,9.92-22.6-15.15-35.81-35.47-35.86-7.26.69-14.95-6.09-22.82-8.43-1.86-.56-2.5-2.91-1.2-4.36,11.19-12.42,17.83-30.87,15.67-46.72-.17-1.22-.04-2.48.37-3.65C125.36,20.86,118.21.26,101.86.05c-9.65-.89-18.63,10.36-18.62,21.84,0,1.2-.24,2.4-.66,3.53-4.78,13-13.38,23.86-16.63,37.84-.82,3.52-2.19,6.88-3.94,10.04-11.08,19.96-27.04,40.71-44.91,53.17-4.25,2.96-7.97,6.66-10.66,11.08-8.21,13.51-5.77,28.78-5.42,43.86.08,3.38-.27,6.75-.71,10.1ZM33.79,151.77c.16,1.17-.75,2.26-1.93,2.18-4.24-.27-8.2,2-11.72,4.48-1.26.89-3-.03-2.98-1.57.08-5.15.6-11.55,4.15-14.25,8.36-2.88,11.52,2.22,12.47,9.15ZM34.98,137.05c18.67-8.06,35.12-20.07,50.06-33.77,7.82-5.03,14.98,10.93,10.52,16.55-20.01,5.12-39.63,13.27-55.5,27.64-1.49,1.35-3.89.68-4.45-1.26-.5-1.74-1.01-3.68-1.97-5.28-.84-1.41-.19-3.22,1.32-3.88ZM43.09,157.65c7.61-1.5,14.56-5.03,21.3-8.84,2.19-1.24,4.4-2.46,6.74-3.37,11.35-4.36,29.41-32.04,28.93-7.75,1.88,14.86-11.44,12.98-21.67,15.05-10.86-.49-32.58,24.14-36.92,9.03-.77-2.11-.53-3.71,1.62-4.13ZM75.68,94.1c13.1,6.89-23.67,32.03-38.06,36.94-.91.31-1.49-.93-.68-1.45,17.87-11.54,21.49-28.31,29.8-34.64,2.56-1.95,6.09-2.35,8.94-.85ZM95.94,64.93c1.2.91,1.71,2.54,1.11,3.92-3.03,7.03-14.17,12.22-13.74,22.06-1.98,3.27-5.5-.52-9.13-1.73-1.03-.34-1.34-1.62-.61-2.42,10.71-11.67,3.54-36.01,22.36-21.82ZM97.5,60.65c-26.58-9.17-.9-9.07,1.41-36.32.45-17.59,9.98-4.49,6.66,5.73-4.28,8.84,1.55,20.66-2.56,28.52-1.03,1.96-3.42,2.79-5.52,2.07ZM147.13,131.36c-1.47,1.38-3.6,1.76-5.52,1.17-7.09-2.18-14.3-3.81-21.61-4.87-3.3-.48-6.42-1.64-9.43-3.07-2.49-1.18-5.21-1.12-7.89-1.13-1.69,0-2.73-1.73-2.08-3.29,1.75-4.19,1.43-9.18-.84-13.63-.57-1.12.56-2.34,1.68-1.79,7.88,3.89,15.55,8.67,24.6,9.01,5.82,1.56,11.99,1.4,17.75,3.05,7.57,1.38,7.77,10.38,3.34,14.55ZM141.33,158.15c-11.95-.25-22.24-9.43-34.43-9.95-1.47-.06-2.6-1.32-2.44-2.78.52-4.87,1.06-10.36-.07-15.45-.46-2.09,1.81-3.74,3.7-2.73,5.39,2.88,9.71,8.93,16.21,9.39,6.37,2.1,13.81-.84,19.9,1.77,6.99,4.02,5.42,18.45-2.87,19.75ZM104.49,187.74c-1.83.15-3.32-1.41-2.99-3.21.81-4.43,2.09-9.86.86-14.64-.56-2.18,1.51-4.15,3.6-3.31,3.55,1.41,7.37,4.61,10.85,4.95,7.28,4.08,23.8-7.73,23.98,5.34-.73,20.23-22.47,9.72-36.3,10.88ZM99.07,194.79c-.57-1.19.31-2.55,1.63-2.52,13.03.33,48.5,1.41,18.92,6.3-7.77,1.04-12.29,7.54-17.57,12.33-1.38,1.25-3.54-.19-2.87-1.92,1.78-4.61,2.03-9.72-.11-14.19ZM50.53,186.12c-1.72.04-4.16,1.12-6.42,1.6-2.78.59-5.3-1.79-4.89-4.61.66-4.61,2.77-10.58,7.55-9.01,14.9,5.42,54.57-22.13,51.68,3.7,1.95,21.88-23.4-.41-47.91,8.31ZM35.56,198.02c.63-1.68,2.35-2.65,4.12-2.39,13.62,2.04,27.73,1.46,41.12-2.5,17.39-7.34,20.49,19.1,5.19,22.04-10.43-2.12-21.68-6.2-31.88-6.81-3.64.14-7.4.48-11.23.48-12.04-.55-13.8,6.5-7.31-10.81ZM22.63,191.38c.38-.18.83-.21,1.25-.12,2.01.45,4,.48,5.96.14,1.62-.28,2.8,1.5,1.89,2.86-2.34,3.47-5.14,6.96-5.09,11.37.02,1.33-1.41,2.19-2.63,1.67-8.96-3.84-12.02-10.86-1.37-15.91ZM34.81,158.71c1.79,2.61,1.36,6.58,3.03,9.65.79,1.45.61,3.18-.47,4.43-3.51,4.09-3.83,9.89-4.44,14.68-5.89.94-12.34.55-16.78-3.87-3.09-11.84,3.91-28.72,18.65-24.88Z"/>
      <g>
        <path class="cls-2" d="M39.68,195.63c13.62,2.04,27.73,1.46,41.12-2.5,17.39-7.34,20.49,19.1,5.19,22.04-10.43-2.12-21.68-6.2-31.88-6.81-3.64.14-7.4.48-11.23.48-12.04-.55-13.8,6.5-7.31-10.81.63-1.68,2.35-2.65,4.12-2.39Z"/>
        <path class="cls-2" d="M50.53,186.12c-1.72.04-4.16,1.12-6.42,1.6-2.78.59-5.3-1.8-4.9-4.61.66-4.61,2.78-10.57,7.55-9,14.9,5.42,54.57-22.13,51.68,3.7,1.95,21.88-23.4-.41-47.91,8.31Z"/>
        <path class="cls-2" d="M95.57,119.82c-20.01,5.12-39.63,13.27-55.5,27.64-1.49,1.35-3.89.68-4.45-1.26-.5-1.74-1.01-3.67-1.97-5.28-.84-1.41-.19-3.22,1.32-3.87,18.67-8.06,35.12-20.07,50.06-33.77,7.82-5.03,14.98,10.93,10.52,16.55Z"/>
        <path class="cls-2" d="M104.47,145.42c.52-4.87,1.06-10.36-.07-15.44-.46-2.09,1.81-3.74,3.7-2.73,5.39,2.88,9.71,8.93,16.21,9.39,6.37,2.1,13.81-.84,19.9,1.77,6.99,4.02,5.42,18.45-2.87,19.75-11.94-.25-22.24-9.43-34.42-9.94-1.47-.06-2.6-1.32-2.45-2.79Z"/>
        <path class="cls-2" d="M141.61,132.53c-7.09-2.18-14.3-3.81-21.61-4.87-3.3-.48-6.42-1.64-9.43-3.07-2.49-1.18-5.21-1.12-7.89-1.13-1.69,0-2.73-1.73-2.08-3.29,1.75-4.19,1.43-9.18-.84-13.63-.57-1.12.56-2.34,1.68-1.79,7.88,3.89,15.55,8.67,24.6,9.01,5.82,1.56,11.99,1.4,17.75,3.05,7.57,1.38,7.77,10.38,3.34,14.55-1.47,1.38-3.6,1.76-5.52,1.17Z"/>
        <path class="cls-2" d="M64.39,148.81c2.19-1.24,4.4-2.46,6.74-3.37,11.35-4.36,29.41-32.05,28.93-7.75,1.88,14.86-11.44,12.98-21.67,15.05-10.86-.49-32.58,24.14-36.92,9.03-.77-2.11-.53-3.71,1.62-4.13,7.61-1.5,14.56-5.03,21.3-8.84Z"/>
        <path class="cls-2" d="M104.49,187.74c-1.83.15-3.32-1.41-2.99-3.21.81-4.43,2.09-9.86.86-14.64-.56-2.18,1.51-4.15,3.6-3.31,3.03,1.2,6.24,3.71,9.28,4.63,1.01.31,2.01.64,3.03.91,7.81,2.11,22.34-7.5,22.52,4.75-.73,20.23-22.48,9.72-36.3,10.88Z"/>
        <path class="cls-2" d="M34.81,158.71c1.79,2.61,1.36,6.58,3.03,9.65.79,1.45.61,3.18-.47,4.42-3.51,4.09-3.83,9.89-4.43,14.68-5.89.94-12.34.55-16.78-3.87-3.09-11.84,3.91-28.72,18.65-24.88Z"/>
        <path class="cls-2" d="M103.02,58.58c-1.03,1.96-3.42,2.79-5.52,2.07-26.58-9.17-.9-9.07,1.41-36.32.45-17.59,9.98-4.49,6.66,5.73-4.28,8.84,1.55,20.66-2.56,28.52Z"/>
        <path class="cls-2" d="M37.62,131.04c-.91.31-1.49-.93-.68-1.45,17.87-11.54,21.49-28.31,29.8-34.64,2.56-1.95,6.09-2.35,8.94-.85,13.1,6.89-23.67,32.03-38.06,36.94Z"/>
        <path class="cls-2" d="M95.95,64.94c1.2.9,1.7,2.52,1.11,3.9-3.03,7.04-14.17,12.23-13.75,22.07-1.98,3.27-5.5-.52-9.13-1.73-1.03-.34-1.34-1.62-.61-2.42,10.71-11.67,3.53-36.02,22.37-21.82Z"/>
        <path class="cls-2" d="M100.71,192.27c13.03.33,48.48,1.41,18.91,6.3-7.77,1.04-12.29,7.54-17.57,12.33-1.38,1.25-3.54-.19-2.87-1.92,1.78-4.6,2.03-9.72-.11-14.18-.57-1.19.31-2.56,1.63-2.53Z"/>
        <path class="cls-2" d="M31.87,153.95c-4.24-.27-8.2,1.99-11.72,4.48-1.27.89-3.01-.03-2.98-1.58.08-5.15.6-11.54,4.15-14.24,8.36-2.88,11.52,2.22,12.47,9.16.16,1.17-.75,2.26-1.92,2.18Z"/>
        <path class="cls-2" d="M22.64,191.37c.38-.18.82-.21,1.23-.12,2.02.46,4,.48,5.97.14,1.62-.28,2.8,1.5,1.89,2.86-2.34,3.47-5.14,6.96-5.09,11.37.02,1.33-1.41,2.19-2.63,1.67-8.96-3.84-12.03-10.87-1.36-15.92Z"/>
      </g>
    </g>
  </g>
</svg>